Coordinates
version=1
nRows=13
nColumns=40
inDegrees=yes

Units are S.I. units (second, meters, Newtons, ...)
Angles are in degrees.

endheader
time	pelvis_tilt	pelvis_list	pelvis_rotation	pelvis_tx	pelvis_ty	pelvis_tz	hip_flexion_r	hip_adduction_r	hip_rotation_r	knee_angle_r	knee_angle_r_beta	ankle_angle_r	subtalar_angle_r	mtp_angle_r	hip_flexion_l	hip_adduction_l	hip_rotation_l	knee_angle_l	knee_angle_l_beta	ankle_angle_l	subtalar_angle_l	mtp_angle_l	lumbar_extension	lumbar_bending	lumbar_rotation	arm_flex_r	arm_add_r	arm_rot_r	elbow_flex_r	pro_sup_r	wrist_flex_r	wrist_dev_r	arm_flex_l	arm_add_l	arm_rot_l	elbow_flex_l	pro_sup_l	wrist_flex_l	wrist_dev_l
     10.00500000	     -3.74905245	     -4.00140470	     -5.61690799	      0.98069255	      0.92397146	      0.44349289	     30.00470310	     -1.20553748	    -13.78550330	     13.04084020	     13.04084020	      3.13008252	      7.05000133	     11.68736830	     -0.78248487	     -4.05758662	    -10.36836849	     12.93823297	     12.93823297	     17.42541422	     -8.82871156	     -5.26350912	    -12.46882867	      6.50801796	      3.85911583	    -12.52468219	    -13.47076691	     -7.59902591	     22.44722955	     47.16441288	      0.00000000	      0.00000000	     26.59789220	    -19.21528232	     -0.54047259	     87.66195562	     47.66101329	      0.00000000	      0.00000000
     10.01635714	     -3.80088838	     -3.97394038	     -5.47201583	      0.98309426	      0.92198093	      0.44513514	     29.71602879	     -1.06532783	    -14.06688901	     12.94553375	     12.94553375	      3.21320746	      7.01678508	     11.65456985	     -1.41018784	     -4.09329249	    -10.19540152	     13.01042155	     13.01042155	     17.91867101	     -8.84227058	     -5.37324434	    -12.05542888	      6.49059975	      3.58461240	    -13.90565540	    -13.39051008	     -7.60874806	     22.02232251	     47.16807991	      0.00000000	      0.00000000	     27.20230225	    -19.52126621	     -0.81161212	     88.23605139	     47.69495740	      0.00000000	      0.00000000
     10.02771429	     -3.69937355	     -4.08520360	     -5.40903757	      0.98573365	      0.92021489	      0.44708322	     29.16446359	     -0.81740241	    -14.56512720	     13.17755010	     13.17755010	      2.99433668	      7.29742380	     10.83604029	     -2.22023241	     -4.29972928	    -10.21913804	     13.18172739	     13.18172739	     18.71145246	     -8.61664954	     -4.96599258	    -12.05590664	      6.50072092	      4.31683834	    -15.87185150	    -13.13063903	     -7.59958887	     22.21032303	     47.12702317	      0.00000000	      0.00000000	     27.71585949	    -18.95644640	     -0.85789173	     90.99157023	     47.76695855	      0.00000000	      0.00000000
     10.03907143	     -3.67073396	     -4.12620359	     -5.25710105	      0.98858360	      0.91822472	      0.44922210	     28.62869114	     -0.60526234	    -14.64332013	     13.56594077	     13.56594077	      1.60367306	      6.78145609	      6.33068382	     -2.77554574	     -4.55831909	    -10.49810739	     13.77722812	     13.77722812	     20.40179329	     -7.49037508	     -2.89769253	    -11.85636326	      6.49628258	      3.99009971	    -18.10730169	    -13.16146018	     -7.37987346	     25.08710160	     46.90694318	      0.00000000	      0.00000000	     27.45059718	    -19.49799673	     -1.32215308	     93.32577088	     47.90797700	      0.00000000	      0.00000000
     10.05042857	     -3.66293747	     -4.21946974	     -5.12832197	      0.99133573	      0.91636126	      0.45151798	     28.31676450	     -0.40939012	    -14.59248204	     14.66106291	     14.66106291	      1.45845649	      6.24998726	      5.45816663	     -3.37993853	     -4.81966177	    -10.41903219	     14.12041624	     14.12041624	     20.96046363	     -7.46465562	     -2.82749167	    -11.59982566	      6.51037597	      4.18664233	    -19.36269625	    -12.93528865	     -7.23770563	     24.86731929	     46.88519571	      0.00000000	      0.00000000	     27.79512520	    -19.31908040	     -1.44582724	     94.41489227	     47.94967444	      0.00000000	      0.00000000
     10.06178571	     -3.62766918	     -4.40607781	     -4.97244026	      0.99418666	      0.91469400	      0.45394847	     27.90423435	     -0.12101609	    -14.49923028	     15.77198808	     15.77198808	      1.29898373	      5.68772737	      4.63255161	     -3.97130609	     -5.21351308	    -10.31845546	     14.57273476	     14.57273476	     21.47972310	     -7.46003030	     -2.76339558	    -11.37628403	      6.65803370	      4.23118969	    -20.42311550	    -12.73096049	     -7.19422982	     24.80744362	     46.86876204	      0.00000000	      0.00000000	     27.87173288	    -19.34923789	     -1.61457054	     95.29852205	     47.98463152	      0.00000000	      0.00000000
     10.07314286	     -3.65640482	     -4.49701070	     -4.80220304	      0.99693321	      0.91304654	      0.45649822	     27.65434698	      0.09224783	    -14.07398019	     17.02909732	     17.02909732	      1.07471685	      4.80508509	      3.26201265	     -4.26844787	     -5.59099540	    -10.35841760	     15.41914990	     15.41914990	     22.07833821	     -7.35675626	     -2.59585074	    -11.12077902	      6.62935860	      4.30002533	    -21.38734306	    -12.50929884	     -7.17575286	     25.09185442	     46.83777233	      0.00000000	      0.00000000	     27.76999886	    -19.18725221	     -1.81981468	     96.68409545	     48.03394460	      0.00000000	      0.00000000
     10.08450000	     -3.66189591	     -4.70966589	     -4.61800039	      0.99968083	      0.91180045	      0.45924450	     27.03311668	      0.60389382	    -13.33105174	     17.46455278	     17.46455278	     -0.45727817	      3.12900366	     -1.27809742	     -4.38360512	     -6.25978868	    -10.80036026	     16.77134601	     16.77134601	     23.28817147	     -6.27410448	     -1.33768831	    -10.97044442	      6.76522485	      3.71885616	    -22.33631180	    -12.53282364	     -7.05783595	     27.05592664	     46.70173571	      0.00000000	      0.00000000	     26.65721744	    -19.50920537	     -2.91729532	     99.01208550	     48.18975976	      0.00000000	      0.00000000
     10.09585714	     -3.55518466	     -4.91308712	     -4.44401985	      1.00223595	      0.91122208	      0.46181253	     26.57258324	      0.87480063	    -13.17891890	     18.51012037	     18.51012037	     -0.24715284	      2.78361361	     -1.78350235	     -4.64508012	     -6.75906850	    -10.55791331	     17.89492293	     17.89492293	     23.37836380	     -6.72435625	     -1.46105860	    -10.93543398	      6.91970151	      3.87815850	    -22.66962918	    -12.34472622	     -6.94786925	     26.89445636	     46.69378187	      0.00000000	      0.00000000	     26.46342507	    -19.25921207	     -3.01248462	     99.27153527	     48.20513028	      0.00000000	      0.00000000
     10.10721429	     -3.69706334	     -5.10300951	     -4.24663381	      1.00429547	      0.91065416	      0.46447486	     26.42963451	      1.18808310	    -12.80754016	     19.46384200	     19.46384200	     -0.00588668	      1.98919807	     -2.36648874	     -4.19505538	     -7.38215666	    -10.26932221	     19.75742964	     19.75742964	     23.34001858	     -7.28088915	     -1.81112796	    -10.70792630	      7.00029237	      3.99778941	    -22.77530683	    -12.10961801	     -6.81949576	     26.85598330	     46.67896715	      0.00000000	      0.00000000	     26.06862634	    -18.84382746	     -3.27608962	     99.85075653	     48.24038514	      0.00000000	      0.00000000
     10.11857143	     -3.71817490	     -5.36781987	     -4.08341119	      1.00624501	      0.91080440	      0.46722635	     26.04906847	      1.65101089	    -12.26635120	     20.10114759	     20.10114759	      0.18598527	      0.88390877	     -3.07045989	     -3.74238555	     -8.12887464	    -10.13046801	     21.83125733	     21.83125733	     22.87348707	     -7.84458758	     -2.76634726	    -10.66699245	      7.19886641	      3.66255861	    -22.28694152	    -12.07347243	     -6.49519285	     26.83801256	     46.64231065	      0.00000000	      0.00000000	     24.95626147	    -18.58518420	     -4.34050375	    100.74763279	     48.35179440	      0.00000000	      0.00000000
     10.12992857	     -3.60774097	     -5.64757428	     -3.89574885	      1.00800670	      0.91162130	      0.46986119	     25.48829510	      2.00510242	    -12.23424385	     20.64264611	     20.64264611	      0.73274343	      0.67048002	     -3.33339693	     -3.20609853	     -8.87003713	     -9.72654825	     24.24971032	     24.24971032	     22.24818373	     -8.75322706	     -3.20852778	    -10.83358215	      7.41692618	      3.84683892	    -21.81592585	    -11.93244776	     -6.39100543	     26.87416731	     46.63424678	      0.00000000	      0.00000000	     24.35747260	    -18.21150796	     -4.39609074	    100.76161372	     48.35761574	      0.00000000	      0.00000000
     10.14128571	     -3.66328487	     -5.91648445	     -3.70438682	      1.00932497	      0.91254163	      0.47256092	     25.06492756	      2.38269573	    -12.18784642	     20.98573027	     20.98573027	      1.27834368	      0.35010353	     -3.44711609	     -2.10683717	     -9.67705566	     -9.19024776	     27.25140586	     27.25140586	     21.22343302	     -9.84999185	     -3.92687893	    -10.84472418	      7.58291356	      3.94180487	    -21.08136999	    -11.76884047	     -6.26910574	     26.94524180	     46.62556165	      0.00000000	      0.00000000	     23.54943914	    -17.74040823	     -4.55813414	    100.65812184	     48.36713403	      0.00000000	      0.00000000
